<mxfile host="65bd71144e">
    <diagram id="AYCIciPir0RGrKzQzy5o" name="Page-1">
        <mxGraphModel dx="670" dy="204" grid="1" gridSize="10" guides="1" tooltips="1" connect="1" arrows="1" fold="1" page="1" pageScale="1" pageWidth="850" pageHeight="1100" math="0" shadow="0">
            <root>
                <mxCell id="0"/>
                <mxCell id="1" parent="0"/>
                <mxCell id="3miMxp0SA2QL_Z7ouwS9-12" value="" style="rounded=0;whiteSpace=wrap;html=1;" vertex="1" parent="1">
                    <mxGeometry x="320" y="120" width="260" height="590" as="geometry"/>
                </mxCell>
                <mxCell id="3miMxp0SA2QL_Z7ouwS9-3" value="Sistema &quot;Mis Acciones&quot;" style="text;html=1;align=center;verticalAlign=middle;resizable=0;points=[];autosize=1;strokeColor=none;fillColor=none;" vertex="1" parent="1">
                    <mxGeometry x="325" y="90" width="150" height="30" as="geometry"/>
                </mxCell>
                <mxCell id="3miMxp0SA2QL_Z7ouwS9-7" value="Actor" style="shape=umlActor;verticalLabelPosition=bottom;verticalAlign=top;html=1;outlineConnect=0;" vertex="1" parent="1">
                    <mxGeometry x="150" y="360" width="30" height="60" as="geometry"/>
                </mxCell>
                <mxCell id="3miMxp0SA2QL_Z7ouwS9-9" value="Nombre de la acción" style="ellipse;whiteSpace=wrap;html=1;" vertex="1" parent="1">
                    <mxGeometry x="390" y="130" width="120" height="80" as="geometry"/>
                </mxCell>
                <mxCell id="3miMxp0SA2QL_Z7ouwS9-10" value="Fecha de Compra" style="ellipse;whiteSpace=wrap;html=1;" vertex="1" parent="1">
                    <mxGeometry x="390" y="230" width="120" height="80" as="geometry"/>
                </mxCell>
                <mxCell id="3miMxp0SA2QL_Z7ouwS9-11" value="Precio de Compra por acción&amp;nbsp;" style="ellipse;whiteSpace=wrap;html=1;" vertex="1" parent="1">
                    <mxGeometry x="390" y="330" width="120" height="80" as="geometry"/>
                </mxCell>
                <mxCell id="3miMxp0SA2QL_Z7ouwS9-13" value="Cantidad de Acciones" style="ellipse;whiteSpace=wrap;html=1;" vertex="1" parent="1">
                    <mxGeometry x="390" y="420" width="120" height="80" as="geometry"/>
                </mxCell>
                <mxCell id="3miMxp0SA2QL_Z7ouwS9-15" value="" style="endArrow=classic;html=1;rounded=0;" edge="1" parent="1" source="3miMxp0SA2QL_Z7ouwS9-7" target="3miMxp0SA2QL_Z7ouwS9-9">
                    <mxGeometry width="50" height="50" relative="1" as="geometry">
                        <mxPoint x="400" y="330" as="sourcePoint"/>
                        <mxPoint x="450" y="280" as="targetPoint"/>
                    </mxGeometry>
                </mxCell>
                <mxCell id="3miMxp0SA2QL_Z7ouwS9-16" value="" style="endArrow=classic;html=1;rounded=0;" edge="1" parent="1" source="3miMxp0SA2QL_Z7ouwS9-7" target="3miMxp0SA2QL_Z7ouwS9-10">
                    <mxGeometry width="50" height="50" relative="1" as="geometry">
                        <mxPoint x="400" y="330" as="sourcePoint"/>
                        <mxPoint x="450" y="280" as="targetPoint"/>
                    </mxGeometry>
                </mxCell>
                <mxCell id="3miMxp0SA2QL_Z7ouwS9-17" value="" style="endArrow=classic;html=1;rounded=0;" edge="1" parent="1" source="3miMxp0SA2QL_Z7ouwS9-7" target="3miMxp0SA2QL_Z7ouwS9-11">
                    <mxGeometry width="50" height="50" relative="1" as="geometry">
                        <mxPoint x="400" y="330" as="sourcePoint"/>
                        <mxPoint x="450" y="280" as="targetPoint"/>
                    </mxGeometry>
                </mxCell>
                <mxCell id="3miMxp0SA2QL_Z7ouwS9-18" value="" style="endArrow=classic;html=1;rounded=0;" edge="1" parent="1" source="3miMxp0SA2QL_Z7ouwS9-7" target="3miMxp0SA2QL_Z7ouwS9-13">
                    <mxGeometry width="50" height="50" relative="1" as="geometry">
                        <mxPoint x="400" y="330" as="sourcePoint"/>
                        <mxPoint x="450" y="280" as="targetPoint"/>
                    </mxGeometry>
                </mxCell>
                <mxCell id="3miMxp0SA2QL_Z7ouwS9-19" value="Costo Total de Compra" style="ellipse;whiteSpace=wrap;html=1;" vertex="1" parent="1">
                    <mxGeometry x="390" y="620" width="120" height="80" as="geometry"/>
                </mxCell>
                <mxCell id="3miMxp0SA2QL_Z7ouwS9-20" value="Eliminar Accion&amp;nbsp;" style="ellipse;whiteSpace=wrap;html=1;" vertex="1" parent="1">
                    <mxGeometry x="390" y="520" width="120" height="80" as="geometry"/>
                </mxCell>
                <mxCell id="3miMxp0SA2QL_Z7ouwS9-21" value="" style="endArrow=classic;html=1;rounded=0;entryX=0;entryY=0.5;entryDx=0;entryDy=0;" edge="1" parent="1" source="3miMxp0SA2QL_Z7ouwS9-7" target="3miMxp0SA2QL_Z7ouwS9-20">
                    <mxGeometry width="50" height="50" relative="1" as="geometry">
                        <mxPoint x="400" y="430" as="sourcePoint"/>
                        <mxPoint x="450" y="380" as="targetPoint"/>
                    </mxGeometry>
                </mxCell>
            </root>
        </mxGraphModel>
    </diagram>
</mxfile>